<?xml version="1.0" encoding="UTF-8" standalone="no"?>
<!DOCTYPE svg PUBLIC "-//W3C//DTD SVG 1.1//EN"
 "http://www.w3.org/Graphics/SVG/1.1/DTD/svg11.dtd">
<!-- Generated by graphviz version 2.40.1 (20161225.0304)
 -->
<!-- Title: LSTMFlow Pages: 1 -->
<svg width="280pt" height="1859pt"
 viewBox="0.00 0.00 279.93 1858.80" xmlns="http://www.w3.org/2000/svg" xmlns:xlink="http://www.w3.org/1999/xlink">
<g id="graph0" class="graph" transform="scale(1 1) rotate(0) translate(4 1854.8)">
<title>LSTMFlow</title>
<polygon fill="#ffffff" stroke="transparent" points="-4,4 -4,-1854.8 275.927,-1854.8 275.927,4 -4,4"/>
<!-- A -->
<g id="node1" class="node">
<title>A</title>
<path fill="#add8e6" stroke="#000080" stroke-width="1.5" d="M211.1678,-1850.7004C211.1678,-1850.7004 60.7592,-1850.7004 60.7592,-1850.7004 54.7592,-1850.7004 48.7592,-1844.7004 48.7592,-1838.7004 48.7592,-1838.7004 48.7592,-1818.0996 48.7592,-1818.0996 48.7592,-1812.0996 54.7592,-1806.0996 60.7592,-1806.0996 60.7592,-1806.0996 211.1678,-1806.0996 211.1678,-1806.0996 217.1678,-1806.0996 223.1678,-1812.0996 223.1678,-1818.0996 223.1678,-1818.0996 223.1678,-1838.7004 223.1678,-1838.7004 223.1678,-1844.7004 217.1678,-1850.7004 211.1678,-1850.7004"/>
<text text-anchor="middle" x="135.9635" y="-1824.2" font-family="Helvetica,sans-Serif" font-size="14.00" fill="#000000">Load data (xlsx) → df</text>
</g>
<!-- B -->
<g id="node2" class="node">
<title>B</title>
<path fill="#add8e6" stroke="#000080" stroke-width="1.5" d="M259.8905,-1740.8013C259.8905,-1740.8013 12.0365,-1740.8013 12.0365,-1740.8013 6.0365,-1740.8013 .0365,-1734.8013 .0365,-1728.8013 .0365,-1728.8013 .0365,-1691.5987 .0365,-1691.5987 .0365,-1685.5987 6.0365,-1679.5987 12.0365,-1679.5987 12.0365,-1679.5987 259.8905,-1679.5987 259.8905,-1679.5987 265.8905,-1679.5987 271.8905,-1685.5987 271.8905,-1691.5987 271.8905,-1691.5987 271.8905,-1728.8013 271.8905,-1728.8013 271.8905,-1734.8013 265.8905,-1740.8013 259.8905,-1740.8013"/>
<text text-anchor="middle" x="135.9635" y="-1714.4" font-family="Helvetica,sans-Serif" font-size="14.00" fill="#000000">Clean &amp; tidy</text>
<text text-anchor="middle" x="135.9635" y="-1697.6" font-family="Helvetica,sans-Serif" font-size="14.00" fill="#000000">fill(YEAR), Month→Month_num, date</text>
</g>
<!-- A&#45;&gt;B -->
<g id="edge1" class="edge">
<title>A&#45;&gt;B</title>
<path fill="none" stroke="#595959" stroke-width="1.2" d="M135.9635,-1805.8893C135.9635,-1790.4756 135.9635,-1769.5877 135.9635,-1751.2599"/>
<polygon fill="#595959" stroke="#595959" stroke-width="1.2" points="139.4636,-1751.1097 135.9635,-1741.1097 132.4636,-1751.1097 139.4636,-1751.1097"/>
</g>
<!-- C -->
<g id="node3" class="node">
<title>C</title>
<path fill="#add8e6" stroke="#000080" stroke-width="1.5" d="M220.8298,-1614.2013C220.8298,-1614.2013 51.0972,-1614.2013 51.0972,-1614.2013 45.0972,-1614.2013 39.0972,-1608.2013 39.0972,-1602.2013 39.0972,-1602.2013 39.0972,-1564.9987 39.0972,-1564.9987 39.0972,-1558.9987 45.0972,-1552.9987 51.0972,-1552.9987 51.0972,-1552.9987 220.8298,-1552.9987 220.8298,-1552.9987 226.8298,-1552.9987 232.8298,-1558.9987 232.8298,-1564.9987 232.8298,-1564.9987 232.8298,-1602.2013 232.8298,-1602.2013 232.8298,-1608.2013 226.8298,-1614.2013 220.8298,-1614.2013"/>
<text text-anchor="middle" x="135.9635" y="-1587.8" font-family="Helvetica,sans-Serif" font-size="14.00" fill="#000000">Sort by date</text>
<text text-anchor="middle" x="135.9635" y="-1571" font-family="Helvetica,sans-Serif" font-size="14.00" fill="#000000">select(date, prevalence)</text>
</g>
<!-- B&#45;&gt;C -->
<g id="edge2" class="edge">
<title>B&#45;&gt;C</title>
<path fill="none" stroke="#595959" stroke-width="1.2" d="M135.9635,-1679.5537C135.9635,-1663.037 135.9635,-1642.4358 135.9635,-1624.5609"/>
<polygon fill="#595959" stroke="#595959" stroke-width="1.2" points="139.4636,-1624.4029 135.9635,-1614.4029 132.4636,-1624.4029 139.4636,-1624.4029"/>
</g>
<!-- D -->
<g id="node4" class="node">
<title>D</title>
<path fill="#add8e6" stroke="#000080" stroke-width="1.5" d="M207.115,-1488.001C207.115,-1488.001 64.812,-1488.001 64.812,-1488.001 58.812,-1488.001 52.812,-1482.001 52.812,-1476.001 52.812,-1476.001 52.812,-1421.199 52.812,-1421.199 52.812,-1415.199 58.812,-1409.199 64.812,-1409.199 64.812,-1409.199 207.115,-1409.199 207.115,-1409.199 213.115,-1409.199 219.115,-1415.199 219.115,-1421.199 219.115,-1421.199 219.115,-1476.001 219.115,-1476.001 219.115,-1482.001 213.115,-1488.001 207.115,-1488.001"/>
<text text-anchor="middle" x="135.9635" y="-1461.2" font-family="Helvetica,sans-Serif" font-size="14.00" fill="#000000">Difference series</text>
<text text-anchor="middle" x="135.9635" y="-1444.4" font-family="Helvetica,sans-Serif" font-size="14.00" fill="#000000">prevalence → diffed</text>
<text text-anchor="middle" x="135.9635" y="-1427.6" font-family="Helvetica,sans-Serif" font-size="14.00" fill="#000000">(first NA → 0)</text>
</g>
<!-- C&#45;&gt;D -->
<g id="edge3" class="edge">
<title>C&#45;&gt;D</title>
<path fill="none" stroke="#595959" stroke-width="1.2" d="M135.9635,-1552.9664C135.9635,-1536.688 135.9635,-1516.2831 135.9635,-1497.8436"/>
<polygon fill="#595959" stroke="#595959" stroke-width="1.2" points="139.4636,-1497.8402 135.9635,-1487.8403 132.4636,-1497.8403 139.4636,-1497.8402"/>
</g>
<!-- E -->
<g id="node5" class="node">
<title>E</title>
<path fill="#add8e6" stroke="#000080" stroke-width="1.5" d="M232.9464,-1344.2013C232.9464,-1344.2013 38.9806,-1344.2013 38.9806,-1344.2013 32.9806,-1344.2013 26.9806,-1338.2013 26.9806,-1332.2013 26.9806,-1332.2013 26.9806,-1294.9987 26.9806,-1294.9987 26.9806,-1288.9987 32.9806,-1282.9987 38.9806,-1282.9987 38.9806,-1282.9987 232.9464,-1282.9987 232.9464,-1282.9987 238.9464,-1282.9987 244.9464,-1288.9987 244.9464,-1294.9987 244.9464,-1294.9987 244.9464,-1332.2013 244.9464,-1332.2013 244.9464,-1338.2013 238.9464,-1344.2013 232.9464,-1344.2013"/>
<text text-anchor="middle" x="135.9635" y="-1317.8" font-family="Helvetica,sans-Serif" font-size="14.00" fill="#000000">Lag transform → supervised</text>
<text text-anchor="middle" x="135.9635" y="-1301" font-family="Helvetica,sans-Serif" font-size="14.00" fill="#000000">(x&#45;1, x)</text>
</g>
<!-- D&#45;&gt;E -->
<g id="edge4" class="edge">
<title>D&#45;&gt;E</title>
<path fill="none" stroke="#595959" stroke-width="1.2" d="M135.9635,-1409.1895C135.9635,-1392.0458 135.9635,-1371.9598 135.9635,-1354.6367"/>
<polygon fill="#595959" stroke="#595959" stroke-width="1.2" points="139.4636,-1354.2586 135.9635,-1344.2586 132.4636,-1354.2587 139.4636,-1354.2586"/>
</g>
<!-- F -->
<g id="node6" class="node">
<title>F</title>
<path fill="#add8e6" stroke="#000080" stroke-width="1.5" d="M208.7231,-1217.6013C208.7231,-1217.6013 63.2039,-1217.6013 63.2039,-1217.6013 57.2039,-1217.6013 51.2039,-1211.6013 51.2039,-1205.6013 51.2039,-1205.6013 51.2039,-1168.3987 51.2039,-1168.3987 51.2039,-1162.3987 57.2039,-1156.3987 63.2039,-1156.3987 63.2039,-1156.3987 208.7231,-1156.3987 208.7231,-1156.3987 214.7231,-1156.3987 220.7231,-1162.3987 220.7231,-1168.3987 220.7231,-1168.3987 220.7231,-1205.6013 220.7231,-1205.6013 220.7231,-1211.6013 214.7231,-1217.6013 208.7231,-1217.6013"/>
<text text-anchor="middle" x="135.9635" y="-1191.2" font-family="Helvetica,sans-Serif" font-size="14.00" fill="#000000">Time&#45;ordered split</text>
<text text-anchor="middle" x="135.9635" y="-1174.4" font-family="Helvetica,sans-Serif" font-size="14.00" fill="#000000">70% train / 30% test</text>
</g>
<!-- E&#45;&gt;F -->
<g id="edge5" class="edge">
<title>E&#45;&gt;F</title>
<path fill="none" stroke="#595959" stroke-width="1.2" d="M135.9635,-1282.9537C135.9635,-1266.437 135.9635,-1245.8358 135.9635,-1227.9609"/>
<polygon fill="#595959" stroke="#595959" stroke-width="1.2" points="139.4636,-1227.8029 135.9635,-1217.8029 132.4636,-1227.8029 139.4636,-1227.8029"/>
</g>
<!-- G -->
<g id="node7" class="node">
<title>G</title>
<path fill="#add8e6" stroke="#000080" stroke-width="1.5" d="M207.3443,-1091.0013C207.3443,-1091.0013 64.5827,-1091.0013 64.5827,-1091.0013 58.5827,-1091.0013 52.5827,-1085.0013 52.5827,-1079.0013 52.5827,-1079.0013 52.5827,-1041.7987 52.5827,-1041.7987 52.5827,-1035.7987 58.5827,-1029.7987 64.5827,-1029.7987 64.5827,-1029.7987 207.3443,-1029.7987 207.3443,-1029.7987 213.3443,-1029.7987 219.3443,-1035.7987 219.3443,-1041.7987 219.3443,-1041.7987 219.3443,-1079.0013 219.3443,-1079.0013 219.3443,-1085.0013 213.3443,-1091.0013 207.3443,-1091.0013"/>
<text text-anchor="middle" x="135.9635" y="-1064.6" font-family="Helvetica,sans-Serif" font-size="14.00" fill="#000000">Scale to [&#45;1,1]</text>
<text text-anchor="middle" x="135.9635" y="-1047.8" font-family="Helvetica,sans-Serif" font-size="14.00" fill="#000000">(train min/max only)</text>
</g>
<!-- F&#45;&gt;G -->
<g id="edge6" class="edge">
<title>F&#45;&gt;G</title>
<path fill="none" stroke="#595959" stroke-width="1.2" d="M135.9635,-1156.3537C135.9635,-1139.837 135.9635,-1119.2358 135.9635,-1101.3609"/>
<polygon fill="#595959" stroke="#595959" stroke-width="1.2" points="139.4636,-1101.2029 135.9635,-1091.2029 132.4636,-1101.2029 139.4636,-1101.2029"/>
</g>
<!-- H -->
<g id="node8" class="node">
<title>H</title>
<path fill="#add8e6" stroke="#000080" stroke-width="1.5" d="M254.8049,-964.4013C254.8049,-964.4013 17.1221,-964.4013 17.1221,-964.4013 11.1221,-964.4013 5.1221,-958.4013 5.1221,-952.4013 5.1221,-952.4013 5.1221,-915.1987 5.1221,-915.1987 5.1221,-909.1987 11.1221,-903.1987 17.1221,-903.1987 17.1221,-903.1987 254.8049,-903.1987 254.8049,-903.1987 260.8049,-903.1987 266.8049,-909.1987 266.8049,-915.1987 266.8049,-915.1987 266.8049,-952.4013 266.8049,-952.4013 266.8049,-958.4013 260.8049,-964.4013 254.8049,-964.4013"/>
<text text-anchor="middle" x="135.9635" y="-938" font-family="Helvetica,sans-Serif" font-size="14.00" fill="#000000">Reshape to 3D</text>
<text text-anchor="middle" x="135.9635" y="-921.2" font-family="Helvetica,sans-Serif" font-size="14.00" fill="#000000">[samples, timesteps=1, features=1]</text>
</g>
<!-- G&#45;&gt;H -->
<g id="edge7" class="edge">
<title>G&#45;&gt;H</title>
<path fill="none" stroke="#595959" stroke-width="1.2" d="M135.9635,-1029.7537C135.9635,-1013.237 135.9635,-992.6358 135.9635,-974.7609"/>
<polygon fill="#595959" stroke="#595959" stroke-width="1.2" points="139.4636,-974.6029 135.9635,-964.6029 132.4636,-974.6029 139.4636,-974.6029"/>
</g>
<!-- I -->
<g id="node9" class="node">
<title>I</title>
<path fill="#add8e6" stroke="#000080" stroke-width="1.5" d="M209.9249,-837.8013C209.9249,-837.8013 62.0021,-837.8013 62.0021,-837.8013 56.0021,-837.8013 50.0021,-831.8013 50.0021,-825.8013 50.0021,-825.8013 50.0021,-788.5987 50.0021,-788.5987 50.0021,-782.5987 56.0021,-776.5987 62.0021,-776.5987 62.0021,-776.5987 209.9249,-776.5987 209.9249,-776.5987 215.9249,-776.5987 221.9249,-782.5987 221.9249,-788.5987 221.9249,-788.5987 221.9249,-825.8013 221.9249,-825.8013 221.9249,-831.8013 215.9249,-837.8013 209.9249,-837.8013"/>
<text text-anchor="middle" x="135.9635" y="-811.4" font-family="Helvetica,sans-Serif" font-size="14.00" fill="#000000">Build LSTM</text>
<text text-anchor="middle" x="135.9635" y="-794.6" font-family="Helvetica,sans-Serif" font-size="14.00" fill="#000000">(stateful) + Dense(1)</text>
</g>
<!-- H&#45;&gt;I -->
<g id="edge8" class="edge">
<title>H&#45;&gt;I</title>
<path fill="none" stroke="#595959" stroke-width="1.2" d="M135.9635,-903.1537C135.9635,-886.637 135.9635,-866.0358 135.9635,-848.1609"/>
<polygon fill="#595959" stroke="#595959" stroke-width="1.2" points="139.4636,-848.0029 135.9635,-838.0029 132.4636,-848.0029 139.4636,-848.0029"/>
</g>
<!-- J -->
<g id="node10" class="node">
<title>J</title>
<path fill="#add8e6" stroke="#000080" stroke-width="1.5" d="M192.7189,-711.601C192.7189,-711.601 79.2081,-711.601 79.2081,-711.601 73.2081,-711.601 67.2081,-705.601 67.2081,-699.601 67.2081,-699.601 67.2081,-644.799 67.2081,-644.799 67.2081,-638.799 73.2081,-632.799 79.2081,-632.799 79.2081,-632.799 192.7189,-632.799 192.7189,-632.799 198.7189,-632.799 204.7189,-638.799 204.7189,-644.799 204.7189,-644.799 204.7189,-699.601 204.7189,-699.601 204.7189,-705.601 198.7189,-711.601 192.7189,-711.601"/>
<text text-anchor="middle" x="135.9635" y="-684.8" font-family="Helvetica,sans-Serif" font-size="14.00" fill="#000000">Train</text>
<text text-anchor="middle" x="135.9635" y="-668" font-family="Helvetica,sans-Serif" font-size="14.00" fill="#000000">shuffle=FALSE</text>
<text text-anchor="middle" x="135.9635" y="-651.2" font-family="Helvetica,sans-Serif" font-size="14.00" fill="#000000">reset_states()</text>
</g>
<!-- I&#45;&gt;J -->
<g id="edge9" class="edge">
<title>I&#45;&gt;J</title>
<path fill="none" stroke="#595959" stroke-width="1.2" d="M135.9635,-776.5664C135.9635,-760.288 135.9635,-739.8831 135.9635,-721.4436"/>
<polygon fill="#595959" stroke="#595959" stroke-width="1.2" points="139.4636,-721.4402 135.9635,-711.4403 132.4636,-721.4403 139.4636,-721.4402"/>
</g>
<!-- K -->
<g id="node11" class="node">
<title>K</title>
<path fill="#add8e6" stroke="#000080" stroke-width="1.5" d="M184.1895,-567.8013C184.1895,-567.8013 87.7375,-567.8013 87.7375,-567.8013 81.7375,-567.8013 75.7375,-561.8013 75.7375,-555.8013 75.7375,-555.8013 75.7375,-518.5987 75.7375,-518.5987 75.7375,-512.5987 81.7375,-506.5987 87.7375,-506.5987 87.7375,-506.5987 184.1895,-506.5987 184.1895,-506.5987 190.1895,-506.5987 196.1895,-512.5987 196.1895,-518.5987 196.1895,-518.5987 196.1895,-555.8013 196.1895,-555.8013 196.1895,-561.8013 190.1895,-567.8013 184.1895,-567.8013"/>
<text text-anchor="middle" x="135.9635" y="-541.4" font-family="Helvetica,sans-Serif" font-size="14.00" fill="#000000">Predict</text>
<text text-anchor="middle" x="135.9635" y="-524.6" font-family="Helvetica,sans-Serif" font-size="14.00" fill="#000000">(train &amp; test)</text>
</g>
<!-- J&#45;&gt;K -->
<g id="edge10" class="edge">
<title>J&#45;&gt;K</title>
<path fill="none" stroke="#595959" stroke-width="1.2" d="M135.9635,-632.7895C135.9635,-615.6458 135.9635,-595.5598 135.9635,-578.2367"/>
<polygon fill="#595959" stroke="#595959" stroke-width="1.2" points="139.4636,-577.8586 135.9635,-567.8586 132.4636,-577.8587 139.4636,-577.8586"/>
</g>
<!-- L -->
<g id="node12" class="node">
<title>L</title>
<path fill="#add8e6" stroke="#000080" stroke-width="1.5" d="M204.151,-441.2013C204.151,-441.2013 67.776,-441.2013 67.776,-441.2013 61.776,-441.2013 55.776,-435.2013 55.776,-429.2013 55.776,-429.2013 55.776,-391.9987 55.776,-391.9987 55.776,-385.9987 61.776,-379.9987 67.776,-379.9987 67.776,-379.9987 204.151,-379.9987 204.151,-379.9987 210.151,-379.9987 216.151,-385.9987 216.151,-391.9987 216.151,-391.9987 216.151,-429.2013 216.151,-429.2013 216.151,-435.2013 210.151,-441.2013 204.151,-441.2013"/>
<text text-anchor="middle" x="135.9635" y="-414.8" font-family="Helvetica,sans-Serif" font-size="14.00" fill="#000000">Invert scaling</text>
<text text-anchor="middle" x="135.9635" y="-398" font-family="Helvetica,sans-Serif" font-size="14.00" fill="#000000">→ original diff units</text>
</g>
<!-- K&#45;&gt;L -->
<g id="edge11" class="edge">
<title>K&#45;&gt;L</title>
<path fill="none" stroke="#595959" stroke-width="1.2" d="M135.9635,-506.5537C135.9635,-490.037 135.9635,-469.4358 135.9635,-451.5609"/>
<polygon fill="#595959" stroke="#595959" stroke-width="1.2" points="139.4636,-451.4029 135.9635,-441.4029 132.4636,-451.4029 139.4636,-451.4029"/>
</g>
<!-- M -->
<g id="node13" class="node">
<title>M</title>
<path fill="#add8e6" stroke="#000080" stroke-width="1.5" d="M252.877,-314.6013C252.877,-314.6013 19.05,-314.6013 19.05,-314.6013 13.05,-314.6013 7.05,-308.6013 7.05,-302.6013 7.05,-302.6013 7.05,-265.3987 7.05,-265.3987 7.05,-259.3987 13.05,-253.3987 19.05,-253.3987 19.05,-253.3987 252.877,-253.3987 252.877,-253.3987 258.877,-253.3987 264.877,-259.3987 264.877,-265.3987 264.877,-265.3987 264.877,-302.6013 264.877,-302.6013 264.877,-308.6013 258.877,-314.6013 252.877,-314.6013"/>
<text text-anchor="middle" x="135.9635" y="-288.2" font-family="Helvetica,sans-Serif" font-size="14.00" fill="#000000">Invert differencing</text>
<text text-anchor="middle" x="135.9635" y="-271.4" font-family="Helvetica,sans-Serif" font-size="14.00" fill="#000000">Ŷ_level = Ŷ_diff + previous actual</text>
</g>
<!-- L&#45;&gt;M -->
<g id="edge12" class="edge">
<title>L&#45;&gt;M</title>
<path fill="none" stroke="#595959" stroke-width="1.2" d="M135.9635,-379.9537C135.9635,-363.437 135.9635,-342.8358 135.9635,-324.9609"/>
<polygon fill="#595959" stroke="#595959" stroke-width="1.2" points="139.4636,-324.8029 135.9635,-314.8029 132.4636,-324.8029 139.4636,-324.8029"/>
</g>
<!-- N -->
<g id="node14" class="node">
<title>N</title>
<path fill="#add8e6" stroke="#000080" stroke-width="1.5" d="M187.4103,-188.0013C187.4103,-188.0013 84.5167,-188.0013 84.5167,-188.0013 78.5167,-188.0013 72.5167,-182.0013 72.5167,-176.0013 72.5167,-176.0013 72.5167,-138.7987 72.5167,-138.7987 72.5167,-132.7987 78.5167,-126.7987 84.5167,-126.7987 84.5167,-126.7987 187.4103,-126.7987 187.4103,-126.7987 193.4103,-126.7987 199.4103,-132.7987 199.4103,-138.7987 199.4103,-138.7987 199.4103,-176.0013 199.4103,-176.0013 199.4103,-182.0013 193.4103,-188.0013 187.4103,-188.0013"/>
<text text-anchor="middle" x="135.9635" y="-161.6" font-family="Helvetica,sans-Serif" font-size="14.00" fill="#000000">Evaluate</text>
<text text-anchor="middle" x="135.9635" y="-144.8" font-family="Helvetica,sans-Serif" font-size="14.00" fill="#000000">RMSE / MAE</text>
</g>
<!-- M&#45;&gt;N -->
<g id="edge13" class="edge">
<title>M&#45;&gt;N</title>
<path fill="none" stroke="#595959" stroke-width="1.2" d="M135.9635,-253.3537C135.9635,-236.837 135.9635,-216.2358 135.9635,-198.3609"/>
<polygon fill="#595959" stroke="#595959" stroke-width="1.2" points="139.4636,-198.2029 135.9635,-188.2029 132.4636,-198.2029 139.4636,-198.2029"/>
</g>
<!-- O -->
<g id="node15" class="node">
<title>O</title>
<path fill="#add8e6" stroke="#000080" stroke-width="1.5" d="M203.3047,-61.4013C203.3047,-61.4013 68.6223,-61.4013 68.6223,-61.4013 62.6223,-61.4013 56.6223,-55.4013 56.6223,-49.4013 56.6223,-49.4013 56.6223,-12.1987 56.6223,-12.1987 56.6223,-6.1987 62.6223,-.1987 68.6223,-.1987 68.6223,-.1987 203.3047,-.1987 203.3047,-.1987 209.3047,-.1987 215.3047,-6.1987 215.3047,-12.1987 215.3047,-12.1987 215.3047,-49.4013 215.3047,-49.4013 215.3047,-55.4013 209.3047,-61.4013 203.3047,-61.4013"/>
<text text-anchor="middle" x="135.9635" y="-35" font-family="Helvetica,sans-Serif" font-size="14.00" fill="#000000">Visualize</text>
<text text-anchor="middle" x="135.9635" y="-18.2" font-family="Helvetica,sans-Serif" font-size="14.00" fill="#000000">Train/Test (ggplot)</text>
</g>
<!-- N&#45;&gt;O -->
<g id="edge14" class="edge">
<title>N&#45;&gt;O</title>
<path fill="none" stroke="#595959" stroke-width="1.2" d="M135.9635,-126.7537C135.9635,-110.237 135.9635,-89.6358 135.9635,-71.7609"/>
<polygon fill="#595959" stroke="#595959" stroke-width="1.2" points="139.4636,-71.6029 135.9635,-61.6029 132.4636,-71.6029 139.4636,-71.6029"/>
</g>
</g>
</svg>

